<svg xmlns="http://www.w3.org/2000/svg" xmlns:xlink="http://www.w3.org/1999/xlink" viewBox="0 0 1920 1080"><defs><style>.a{fill:#fff;}.b{fill:#ea4335;}.c{fill:#fbbc05;}.d{fill:#4285f4;}.e{fill:#34a853;}.f{fill:#9aa0a6;}.g,.i{fill:none;}.g{stroke:#dfe1e5;}.g,.i,.m,.n,.o{stroke-miterlimit:10;stroke-width:1.5px;}.h{fill:#f2f2f2;}.i{stroke:#e4e4e4;}.j{fill:#5f6368;}.k{opacity:0.87;}.l{opacity:0.55;}.m{stroke:#4285f4;fill:url(#a);}.n,.o{stroke:#f2f2f2;}.n{fill:url(#b);}.o{fill:url(#c);}</style><linearGradient id="a" x1="1811" y1="77" x2="1811" y2="28" gradientUnits="userSpaceOnUse"><stop offset="0" stop-color="#4683ea"/><stop offset="1" stop-color="#4387fd"/></linearGradient><linearGradient id="b" x1="819" y1="722.5" x2="819" y2="663.5" gradientUnits="userSpaceOnUse"><stop offset="0" stop-color="#f1f1f1"/><stop offset="1" stop-color="#f5f5f5"/></linearGradient><linearGradient id="c" x1="1066" x2="1066" xlink:href="#b"/></defs><title>Google Homepage</title><rect class="a" width="1920" height="1080"/><path class="b" d="M926.933,342.81c0,21.507-16.825,37.355-37.474,37.355s-37.473-15.848-37.473-37.355c0-21.659,16.825-37.356,37.473-37.356S926.933,321.151,926.933,342.81Zm-16.4,0c0-13.44-9.752-22.636-21.07-22.636s-21.069,9.2-21.069,22.636c0,13.305,9.751,22.636,21.069,22.636S910.529,356.1,910.529,342.81Z"/><path class="c" d="M1007.775,342.81c0,21.507-16.826,37.355-37.474,37.355s-37.473-15.848-37.473-37.355c0-21.642,16.825-37.356,37.473-37.356S1007.775,321.151,1007.775,342.81Zm-16.4,0c0-13.44-9.751-22.636-21.069-22.636s-21.069,9.2-21.069,22.636c0,13.305,9.751,22.636,21.069,22.636S991.37,356.1,991.37,342.81Z"/><path class="d" d="M1085.248,307.711v67.065c0,27.587-16.269,38.855-35.5,38.855a35.573,35.573,0,0,1-33.111-22.013l14.282-5.945c2.543,6.08,8.774,13.255,18.812,13.255,12.312,0,19.941-7.6,19.941-21.895V371.66h-.573c-3.671,4.531-10.745,8.489-19.671,8.489-18.678,0-35.789-16.27-35.789-37.2,0-21.087,17.111-37.491,35.789-37.491,8.909,0,15.983,3.958,19.671,8.354h.573v-6.08h15.579Zm-14.417,35.234c0-13.154-8.775-22.771-19.941-22.771-11.318,0-20.8,9.617-20.8,22.771,0,13.018,9.482,22.5,20.8,22.5C1062.057,365.446,1070.831,355.963,1070.831,342.945Z"/><path class="e" d="M1110.932,268.4V377.875h-16V268.4Z"/><path class="b" d="M1173.281,355.105l12.733,8.488a37.184,37.184,0,0,1-31.124,16.556c-21.221,0-37.07-16.4-37.07-37.356,0-22.215,15.984-37.356,35.234-37.356,19.385,0,28.867,15.428,31.966,23.764l1.7,4.245-49.936,20.682c3.823,7.494,9.768,11.318,18.105,11.318,8.353,0,14.147-4.11,18.391-10.341Zm-39.191-13.44,33.381-13.861c-1.836-4.666-7.36-7.916-13.861-7.916C1145.273,319.888,1133.669,327.248,1134.09,341.665Z"/><path class="d" d="M791.422,333.092V317.244h53.406a52.519,52.519,0,0,1,.791,9.566c0,11.89-3.25,26.593-13.726,37.069-10.189,10.611-23.208,16.27-40.454,16.27-31.967,0-58.846-26.038-58.846-58s26.879-58,58.846-58a55.27,55.27,0,0,1,39.747,15.983L820,291.307a40.4,40.4,0,0,0-28.581-11.318c-23.343,0-41.6,18.813-41.6,42.156s18.257,42.155,41.6,42.155c15.141,0,23.764-6.08,29.288-11.6,4.48-4.48,7.427-10.88,8.59-19.621Z"/><path class="f" d="M515.531,576.175h-1.112l-.395-.38a9.153,9.153,0,1,0-.985.986l.38.394v1.112l7.04,7.026,2.1-2.1Zm-8.448,0a6.336,6.336,0,1,1,6.336-6.336A6.327,6.327,0,0,1,507.083,576.175Z"/><path class="d" d="M1404.074,577.971h0a5.032,5.032,0,0,1-5.034-5.034V561.186a5.032,5.032,0,0,1,5.034-5.034h0a5.031,5.031,0,0,1,5.033,5.034v11.751A5.032,5.032,0,0,1,1404.074,577.971Z"/><rect class="e" x="1402.398" y="583.692" width="3.359" height="6.156"/><path class="b" d="M1412.482,573a8.4,8.4,0,0,1-14.367,5.919l-2.347,2.347a11.706,11.706,0,0,0,8.306,3.446h0a11.732,11.732,0,0,0,11.727-11.72h-3.319Z"/><path class="c" d="M1398.115,578.919a8.377,8.377,0,0,1-2.45-5.919h-3.319a11.686,11.686,0,0,0,3.422,8.266Z"/><rect class="g" x="469" y="535" width="982" height="76" rx="37.961"/><rect class="h" y="1012" width="1920" height="68"/><line class="i" y1="1012.5" x2="1920" y2="1012.5"/><path class="j" d="M50.678,1055.4l6.6-17.179h2.45l7.031,17.179h-2.59l-2-5.2H54.979l-1.887,5.2Zm4.957-7.054h5.824l-1.793-4.758q-.82-2.168-1.219-3.563a21.743,21.743,0,0,1-.926,3.282Z"/><path class="j" d="M76.185,1055.4v-1.57a3.871,3.871,0,0,1-3.48,1.852,4.88,4.88,0,0,1-2.737-.821,5.391,5.391,0,0,1-1.933-2.291,7.916,7.916,0,0,1-.686-3.381,8.844,8.844,0,0,1,.621-3.38,4.9,4.9,0,0,1,1.863-2.327,4.984,4.984,0,0,1,2.778-.808,4.143,4.143,0,0,1,3.433,1.711v-6.164h2.1V1055.4Zm-6.668-6.211a5.406,5.406,0,0,0,1.008,3.575,3.039,3.039,0,0,0,2.379,1.183,2.981,2.981,0,0,0,2.349-1.131,5.21,5.21,0,0,0,.967-3.451,5.855,5.855,0,0,0-.984-3.75,3.027,3.027,0,0,0-2.426-1.195,2.926,2.926,0,0,0-2.35,1.148A5.675,5.675,0,0,0,69.517,1049.19Z"/><path class="j" d="M84.724,1055.4l-4.735-12.445h2.227l2.672,7.453q.434,1.207.8,2.508.28-.984.785-2.367l2.765-7.594H91.4L86.692,1055.4Z"/><path class="j" d="M101.594,1051.394l2.179.269a5.31,5.31,0,0,1-1.91,2.965,6.469,6.469,0,0,1-7.892-.627,6.568,6.568,0,0,1-1.6-4.717,6.876,6.876,0,0,1,1.617-4.875,5.476,5.476,0,0,1,4.2-1.734,5.32,5.32,0,0,1,4.078,1.7,6.755,6.755,0,0,1,1.582,4.781c0,.125,0,.313-.012.563H94.551a4.781,4.781,0,0,0,1.16,3.14,3.45,3.45,0,0,0,2.6,1.09,3.23,3.23,0,0,0,1.981-.609A4.05,4.05,0,0,0,101.594,1051.394Zm-6.926-3.411h6.949a4.214,4.214,0,0,0-.8-2.355,3.232,3.232,0,0,0-2.613-1.219,3.348,3.348,0,0,0-2.443.973A3.847,3.847,0,0,0,94.668,1047.983Z"/><path class="j" d="M106.207,1055.4v-12.445h1.9v1.887a5.141,5.141,0,0,1,1.342-1.746,2.335,2.335,0,0,1,1.353-.422,4.113,4.113,0,0,1,2.168.679l-.726,1.958a3.02,3.02,0,0,0-1.547-.458,2,2,0,0,0-1.242.417,2.253,2.253,0,0,0-.786,1.154,8.227,8.227,0,0,0-.351,2.461v6.515Z"/><path class="j" d="M118.636,1053.515l.3,1.863a7.814,7.814,0,0,1-1.593.187,3.613,3.613,0,0,1-1.782-.363,2.035,2.035,0,0,1-.89-.955,7.546,7.546,0,0,1-.258-2.49v-7.16H112.87v-1.641h1.547v-3.082l2.1-1.266v4.348h2.121v1.641h-2.121v7.277a3.684,3.684,0,0,0,.111,1.16.873.873,0,0,0,.363.41,1.4,1.4,0,0,0,.721.153A6.987,6.987,0,0,0,118.636,1053.515Z"/><path class="j" d="M120.518,1040.647v-2.425h2.109v2.425Zm0,14.754v-12.445h2.109V1055.4Z"/><path class="j" d="M124.8,1051.687l2.086-.329a2.915,2.915,0,0,0,.979,1.922,3.406,3.406,0,0,0,2.244.668,3.293,3.293,0,0,0,2.156-.592,1.767,1.767,0,0,0,.7-1.388,1.28,1.28,0,0,0-.621-1.125,9.122,9.122,0,0,0-2.156-.715,19.734,19.734,0,0,1-3.217-1.014,3.069,3.069,0,0,1-1.822-2.853,3.2,3.2,0,0,1,.381-1.541,3.4,3.4,0,0,1,1.037-1.178,4.347,4.347,0,0,1,1.342-.615,6.373,6.373,0,0,1,1.822-.252,7.186,7.186,0,0,1,2.572.422,3.5,3.5,0,0,1,1.635,1.142,4.464,4.464,0,0,1,.726,1.928l-2.062.281a2.257,2.257,0,0,0-.815-1.5,2.981,2.981,0,0,0-1.9-.539,3.442,3.442,0,0,0-2.074.481,1.4,1.4,0,0,0-.621,1.125,1.164,1.164,0,0,0,.258.738,1.86,1.86,0,0,0,.808.562q.317.119,1.864.539a26.023,26.023,0,0,1,3.123.979,3.174,3.174,0,0,1,1.388,1.107,3.093,3.093,0,0,1,.5,1.8,3.541,3.541,0,0,1-.615,1.986,3.973,3.973,0,0,1-1.775,1.442,6.464,6.464,0,0,1-2.625.51,5.848,5.848,0,0,1-3.7-1.008A4.693,4.693,0,0,1,124.8,1051.687Z"/><path class="j" d="M137.466,1040.647v-2.425h2.109v2.425Zm0,14.754v-12.445h2.109V1055.4Z"/><path class="j" d="M142.594,1055.4v-12.445h1.9v1.77a4.472,4.472,0,0,1,3.961-2.051,5.2,5.2,0,0,1,2.068.4,3.25,3.25,0,0,1,1.412,1.061,4.061,4.061,0,0,1,.656,1.558,12.07,12.07,0,0,1,.118,2.051v7.652H150.6v-7.57a5.689,5.689,0,0,0-.246-1.928,2.03,2.03,0,0,0-.873-1.019,2.776,2.776,0,0,0-1.471-.381,3.418,3.418,0,0,0-2.326.855q-.978.857-.978,3.246v6.8Z"/><path class="j" d="M155.363,1056.433l2.051.3a1.953,1.953,0,0,0,.715,1.383,3.507,3.507,0,0,0,2.144.586,3.763,3.763,0,0,0,2.262-.586,2.881,2.881,0,0,0,1.078-1.641,13.465,13.465,0,0,0,.153-2.707,4.34,4.34,0,0,1-3.446,1.629,4.7,4.7,0,0,1-3.972-1.851,7.13,7.13,0,0,1-1.407-4.442,8.263,8.263,0,0,1,.645-3.287,5.161,5.161,0,0,1,1.869-2.326,5.044,5.044,0,0,1,2.877-.82,4.462,4.462,0,0,1,3.633,1.781v-1.5h1.945v10.758a10.2,10.2,0,0,1-.592,4.119,4.322,4.322,0,0,1-1.875,1.916,6.493,6.493,0,0,1-3.158.7,5.954,5.954,0,0,1-3.6-1A3.387,3.387,0,0,1,155.363,1056.433Zm1.746-7.477a5.4,5.4,0,0,0,.973,3.574,3.209,3.209,0,0,0,4.875.006,5.225,5.225,0,0,0,.984-3.51,5.1,5.1,0,0,0-1.013-3.445,3.136,3.136,0,0,0-2.444-1.16,3.046,3.046,0,0,0-2.39,1.142A5.077,5.077,0,0,0,157.109,1048.956Z"/><path class="j" d="M214.834,1055.4v-17.179h6.446a7.991,7.991,0,0,1,3.158.521,4.06,4.06,0,0,1,1.863,1.606,4.231,4.231,0,0,1,.674,2.267,3.887,3.887,0,0,1-.6,2.074,4.268,4.268,0,0,1-1.8,1.571,4.481,4.481,0,0,1,2.4,1.558,4.174,4.174,0,0,1,.838,2.6,5.013,5.013,0,0,1-.51,2.244,4.34,4.34,0,0,1-1.259,1.6,5.25,5.25,0,0,1-1.881.849,11.414,11.414,0,0,1-2.772.287Zm2.274-9.961h3.715a8.285,8.285,0,0,0,2.168-.2,2.411,2.411,0,0,0,1.306-.855,2.467,2.467,0,0,0,.44-1.5,2.764,2.764,0,0,0-.41-1.506,2.076,2.076,0,0,0-1.172-.891,9.8,9.8,0,0,0-2.613-.24h-3.434Zm0,7.934h4.277a9.8,9.8,0,0,0,1.547-.082,3.708,3.708,0,0,0,1.313-.469,2.5,2.5,0,0,0,.867-.955,2.994,2.994,0,0,0,.34-1.447,2.849,2.849,0,0,0-.493-1.67,2.591,2.591,0,0,0-1.365-1,8.444,8.444,0,0,0-2.513-.287h-3.973Z"/><path class="j" d="M238.631,1055.4v-1.828a4.556,4.556,0,0,1-3.949,2.11,5.037,5.037,0,0,1-2.057-.422,3.393,3.393,0,0,1-1.418-1.061,3.969,3.969,0,0,1-.65-1.564,10.709,10.709,0,0,1-.129-1.969v-7.711h2.109v6.9a12.3,12.3,0,0,0,.129,2.227,2.2,2.2,0,0,0,.844,1.307,2.616,2.616,0,0,0,1.594.474,3.476,3.476,0,0,0,1.781-.486,2.7,2.7,0,0,0,1.177-1.324,6.634,6.634,0,0,0,.346-2.432v-6.668h2.11V1055.4Z"/><path class="j" d="M242.787,1051.687l2.086-.329a2.914,2.914,0,0,0,.978,1.922,3.406,3.406,0,0,0,2.244.668,3.292,3.292,0,0,0,2.156-.592,1.768,1.768,0,0,0,.7-1.388,1.279,1.279,0,0,0-.622-1.125,9.1,9.1,0,0,0-2.156-.715,19.734,19.734,0,0,1-3.217-1.014,3.069,3.069,0,0,1-1.822-2.853,3.2,3.2,0,0,1,.381-1.541,3.414,3.414,0,0,1,1.037-1.178,4.358,4.358,0,0,1,1.342-.615,6.378,6.378,0,0,1,1.822-.252,7.182,7.182,0,0,1,2.572.422,3.494,3.494,0,0,1,1.635,1.142,4.464,4.464,0,0,1,.727,1.928l-2.063.281a2.256,2.256,0,0,0-.814-1.5,2.981,2.981,0,0,0-1.9-.539,3.445,3.445,0,0,0-2.075.481,1.4,1.4,0,0,0-.621,1.125,1.164,1.164,0,0,0,.258.738,1.858,1.858,0,0,0,.809.562q.317.119,1.863.539a26.023,26.023,0,0,1,3.123.979,3.171,3.171,0,0,1,1.389,1.107,3.093,3.093,0,0,1,.5,1.8,3.543,3.543,0,0,1-.616,1.986,3.973,3.973,0,0,1-1.775,1.442,6.464,6.464,0,0,1-2.625.51,5.845,5.845,0,0,1-3.7-1.008A4.684,4.684,0,0,1,242.787,1051.687Z"/><path class="j" d="M255.45,1040.647v-2.425h2.109v2.425Zm0,14.754v-12.445h2.109V1055.4Z"/><path class="j" d="M260.578,1055.4v-12.445h1.9v1.77a4.472,4.472,0,0,1,3.961-2.051,5.2,5.2,0,0,1,2.068.4,3.256,3.256,0,0,1,1.412,1.061,4.076,4.076,0,0,1,.656,1.558,12.1,12.1,0,0,1,.117,2.051v7.652h-2.109v-7.57a5.689,5.689,0,0,0-.246-1.928,2.03,2.03,0,0,0-.873-1.019,2.776,2.776,0,0,0-1.471-.381,3.418,3.418,0,0,0-2.326.855q-.978.857-.978,3.246v6.8Z"/><path class="j" d="M282.253,1051.394l2.18.269a5.316,5.316,0,0,1-1.91,2.965,6.471,6.471,0,0,1-7.893-.627,6.572,6.572,0,0,1-1.6-4.717,6.876,6.876,0,0,1,1.617-4.875,5.475,5.475,0,0,1,4.195-1.734,5.319,5.319,0,0,1,4.078,1.7,6.751,6.751,0,0,1,1.582,4.781c0,.125,0,.313-.011.563H275.21a4.781,4.781,0,0,0,1.161,3.14,3.45,3.45,0,0,0,2.6,1.09,3.23,3.23,0,0,0,1.981-.609A4.042,4.042,0,0,0,282.253,1051.394Zm-6.925-3.411h6.949a4.221,4.221,0,0,0-.8-2.355,3.232,3.232,0,0,0-2.613-1.219,3.35,3.35,0,0,0-2.444.973A3.846,3.846,0,0,0,275.328,1047.983Z"/><path class="j" d="M286.046,1051.687l2.086-.329a2.914,2.914,0,0,0,.978,1.922,3.41,3.41,0,0,0,2.244.668,3.3,3.3,0,0,0,2.157-.592,1.77,1.77,0,0,0,.7-1.388,1.28,1.28,0,0,0-.621-1.125,9.122,9.122,0,0,0-2.156-.715,19.7,19.7,0,0,1-3.217-1.014,3.068,3.068,0,0,1-1.823-2.853,3.2,3.2,0,0,1,.381-1.541,3.414,3.414,0,0,1,1.037-1.178,4.369,4.369,0,0,1,1.342-.615,6.383,6.383,0,0,1,1.822-.252,7.192,7.192,0,0,1,2.573.422,3.5,3.5,0,0,1,1.635,1.142,4.476,4.476,0,0,1,.726,1.928l-2.062.281a2.261,2.261,0,0,0-.815-1.5,2.981,2.981,0,0,0-1.9-.539,3.442,3.442,0,0,0-2.074.481,1.4,1.4,0,0,0-.621,1.125,1.163,1.163,0,0,0,.257.738,1.864,1.864,0,0,0,.809.562q.317.119,1.863.539a26.023,26.023,0,0,1,3.123.979,3.171,3.171,0,0,1,1.389,1.107,3.093,3.093,0,0,1,.5,1.8,3.541,3.541,0,0,1-.615,1.986,3.976,3.976,0,0,1-1.776,1.442,6.457,6.457,0,0,1-2.625.51,5.847,5.847,0,0,1-3.7-1.008A4.684,4.684,0,0,1,286.046,1051.687Z"/><path class="j" d="M297.854,1051.687l2.085-.329a2.92,2.92,0,0,0,.979,1.922,3.406,3.406,0,0,0,2.244.668,3.292,3.292,0,0,0,2.156-.592,1.767,1.767,0,0,0,.7-1.388,1.28,1.28,0,0,0-.621-1.125,9.1,9.1,0,0,0-2.156-.715,19.734,19.734,0,0,1-3.217-1.014,3.069,3.069,0,0,1-1.822-2.853,3.2,3.2,0,0,1,.381-1.541,3.414,3.414,0,0,1,1.037-1.178,4.347,4.347,0,0,1,1.342-.615,6.378,6.378,0,0,1,1.822-.252,7.182,7.182,0,0,1,2.572.422,3.494,3.494,0,0,1,1.635,1.142,4.464,4.464,0,0,1,.727,1.928l-2.063.281a2.26,2.26,0,0,0-.814-1.5,2.982,2.982,0,0,0-1.9-.539,3.444,3.444,0,0,0-2.074.481,1.4,1.4,0,0,0-.621,1.125,1.164,1.164,0,0,0,.258.738,1.858,1.858,0,0,0,.809.562q.315.119,1.863.539a26.023,26.023,0,0,1,3.123.979,3.171,3.171,0,0,1,1.389,1.107,3.1,3.1,0,0,1,.5,1.8,3.541,3.541,0,0,1-.615,1.986,3.973,3.973,0,0,1-1.775,1.442,6.464,6.464,0,0,1-2.625.51,5.845,5.845,0,0,1-3.7-1.008A4.684,4.684,0,0,1,297.854,1051.687Z"/><path class="j" d="M355.862,1055.4v-17.179h2.274v7.054h8.929v-7.054h2.274V1055.4h-2.274v-8.1h-8.929v8.1Z"/><path class="j" d="M371.878,1049.179a6.414,6.414,0,0,1,1.922-5.121,5.79,5.79,0,0,1,3.914-1.383,5.583,5.583,0,0,1,4.195,1.681,6.4,6.4,0,0,1,1.629,4.647,8.226,8.226,0,0,1-.721,3.779,5.1,5.1,0,0,1-2.1,2.139,6.106,6.106,0,0,1-3.006.762,5.6,5.6,0,0,1-4.225-1.676A6.7,6.7,0,0,1,371.878,1049.179Zm2.168,0a5.3,5.3,0,0,0,1.043,3.58,3.473,3.473,0,0,0,5.238-.006,5.429,5.429,0,0,0,1.043-3.645,5.138,5.138,0,0,0-1.049-3.5,3.478,3.478,0,0,0-5.232-.006A5.282,5.282,0,0,0,374.046,1049.179Z"/><path class="j" d="M388.115,1055.4l-3.808-12.445h2.179l1.981,7.184.738,2.672q.046-.2.645-2.567l1.98-7.289H394l1.863,7.219.621,2.379.715-2.4,2.133-7.2h2.051L397.49,1055.4H395.3l-1.981-7.453-.48-2.121-2.52,9.574Z"/><path class="j" d="M408.931,1049.882l2.144-.188a4.744,4.744,0,0,0,.709,2.116,3.874,3.874,0,0,0,1.729,1.336,6.558,6.558,0,0,0,2.636.509,6.333,6.333,0,0,0,2.3-.386,3.2,3.2,0,0,0,1.483-1.061,2.46,2.46,0,0,0,.486-1.471,2.234,2.234,0,0,0-.469-1.412,3.467,3.467,0,0,0-1.547-1.013,30.15,30.15,0,0,0-3.058-.838,15.635,15.635,0,0,1-3.317-1.073,4.656,4.656,0,0,1-1.834-1.6,3.925,3.925,0,0,1-.6-2.139,4.369,4.369,0,0,1,.738-2.432,4.572,4.572,0,0,1,2.156-1.716,8.18,8.18,0,0,1,3.153-.586,8.617,8.617,0,0,1,3.369.615,4.858,4.858,0,0,1,2.244,1.81,5.2,5.2,0,0,1,.844,2.708l-2.18.164a3.518,3.518,0,0,0-1.189-2.461,4.629,4.629,0,0,0-2.994-.832,4.812,4.812,0,0,0-3.006.755,2.269,2.269,0,0,0-.944,1.823,1.953,1.953,0,0,0,.668,1.523,9.043,9.043,0,0,0,3.428,1.225,22.753,22.753,0,0,1,3.8,1.1,5.212,5.212,0,0,1,2.215,1.752,4.273,4.273,0,0,1,.714,2.444,4.669,4.669,0,0,1-.785,2.584,5.174,5.174,0,0,1-2.256,1.887,7.86,7.86,0,0,1-3.31.673,9.883,9.883,0,0,1-3.908-.679,5.475,5.475,0,0,1-2.473-2.045A5.794,5.794,0,0,1,408.931,1049.882Z"/><path class="j" d="M433.77,1051.394l2.179.269a5.316,5.316,0,0,1-1.91,2.965,6.471,6.471,0,0,1-7.893-.627,6.572,6.572,0,0,1-1.6-4.717,6.876,6.876,0,0,1,1.617-4.875,5.475,5.475,0,0,1,4.195-1.734,5.322,5.322,0,0,1,4.079,1.7,6.755,6.755,0,0,1,1.582,4.781c0,.125,0,.313-.012.563h-9.281a4.776,4.776,0,0,0,1.16,3.14,3.45,3.45,0,0,0,2.6,1.09,3.23,3.23,0,0,0,1.981-.609A4.05,4.05,0,0,0,433.77,1051.394Zm-6.926-3.411h6.949a4.214,4.214,0,0,0-.8-2.355,3.232,3.232,0,0,0-2.613-1.219,3.351,3.351,0,0,0-2.444.973A3.846,3.846,0,0,0,426.844,1047.983Z"/><path class="j" d="M446.527,1053.866a7.838,7.838,0,0,1-2.256,1.406,6.5,6.5,0,0,1-2.326.411,4.523,4.523,0,0,1-3.152-1,3.31,3.31,0,0,1-1.1-2.561,3.411,3.411,0,0,1,.416-1.67,3.455,3.455,0,0,1,1.09-1.213,5.129,5.129,0,0,1,1.518-.691,15.2,15.2,0,0,1,1.875-.317,19.309,19.309,0,0,0,3.762-.726c.007-.289.011-.473.011-.551a2.329,2.329,0,0,0-.6-1.816,3.529,3.529,0,0,0-2.4-.715,3.731,3.731,0,0,0-2.2.521,3.188,3.188,0,0,0-1.049,1.846l-2.062-.281a5.113,5.113,0,0,1,.925-2.139,4.059,4.059,0,0,1,1.864-1.254,8.308,8.308,0,0,1,2.824-.439,7.478,7.478,0,0,1,2.59.375,3.415,3.415,0,0,1,1.465.943,3.326,3.326,0,0,1,.656,1.436,11.926,11.926,0,0,1,.1,1.945v2.813a29.791,29.791,0,0,0,.135,3.72,4.7,4.7,0,0,0,.533,1.494h-2.2A4.474,4.474,0,0,1,446.527,1053.866Zm-.175-4.711a15.463,15.463,0,0,1-3.446.8,7.994,7.994,0,0,0-1.84.422,1.838,1.838,0,0,0-.832.686,1.864,1.864,0,0,0,.346,2.408,2.748,2.748,0,0,0,1.869.562,4.344,4.344,0,0,0,2.168-.533,3.283,3.283,0,0,0,1.395-1.459,5.1,5.1,0,0,0,.34-2.109Z"/><path class="j" d="M451.538,1055.4v-12.445h1.9v1.887a5.141,5.141,0,0,1,1.341-1.746,2.338,2.338,0,0,1,1.354-.422,4.116,4.116,0,0,1,2.168.679l-.727,1.958a3.014,3.014,0,0,0-1.547-.458,2,2,0,0,0-1.242.417,2.251,2.251,0,0,0-.785,1.154,8.227,8.227,0,0,0-.352,2.461v6.515Z"/><path class="j" d="M467.482,1050.843l2.075.269a5.382,5.382,0,0,1-1.741,3.358,5.071,5.071,0,0,1-3.439,1.213,5.343,5.343,0,0,1-4.107-1.67,6.773,6.773,0,0,1-1.553-4.787,8.654,8.654,0,0,1,.668-3.528,4.654,4.654,0,0,1,2.033-2.267,6.03,6.03,0,0,1,2.971-.756,5.167,5.167,0,0,1,3.316,1.025,4.7,4.7,0,0,1,1.652,2.912l-2.05.317a3.411,3.411,0,0,0-1.037-1.887,2.685,2.685,0,0,0-1.8-.633,3.273,3.273,0,0,0-2.59,1.143,5.423,5.423,0,0,0-1,3.615,5.606,5.606,0,0,0,.961,3.645,3.127,3.127,0,0,0,2.508,1.136,2.959,2.959,0,0,0,2.074-.761A3.784,3.784,0,0,0,467.482,1050.843Z"/><path class="j" d="M471.17,1055.4v-17.179h2.109v6.164a4.713,4.713,0,0,1,3.727-1.711,5.013,5.013,0,0,1,2.4.545,3.2,3.2,0,0,1,1.459,1.506,6.937,6.937,0,0,1,.44,2.789v7.886H479.2v-7.886a3.258,3.258,0,0,0-.685-2.3,2.548,2.548,0,0,0-1.94-.721,3.409,3.409,0,0,0-1.763.487,2.741,2.741,0,0,0-1.178,1.318,6.042,6.042,0,0,0-.352,2.3v6.808Z"/><path class="j" d="M493.1,1055.4l-3.809-12.445h2.18l1.98,7.184.738,2.672q.048-.2.645-2.567l1.98-7.289h2.168l1.864,7.219.621,2.379.715-2.4,2.132-7.2h2.051l-3.89,12.445h-2.192l-1.98-7.453-.481-2.121L495.3,1055.4Z"/><path class="j" d="M507.156,1049.179a6.414,6.414,0,0,1,1.922-5.121,5.79,5.79,0,0,1,3.914-1.383,5.585,5.585,0,0,1,4.2,1.681,6.4,6.4,0,0,1,1.628,4.647,8.24,8.24,0,0,1-.72,3.779,5.107,5.107,0,0,1-2.1,2.139,6.106,6.106,0,0,1-3.006.762,5.594,5.594,0,0,1-4.224-1.676A6.691,6.691,0,0,1,507.156,1049.179Zm2.168,0a5.3,5.3,0,0,0,1.043,3.58,3.473,3.473,0,0,0,5.238-.006,5.424,5.424,0,0,0,1.043-3.645,5.143,5.143,0,0,0-1.048-3.5,3.479,3.479,0,0,0-5.233-.006A5.282,5.282,0,0,0,509.324,1049.179Z"/><path class="j" d="M521.073,1055.4v-12.445h1.9v1.887a5.141,5.141,0,0,1,1.341-1.746,2.341,2.341,0,0,1,1.354-.422,4.113,4.113,0,0,1,2.168.679l-.727,1.958a3.014,3.014,0,0,0-1.546-.458,2.01,2.01,0,0,0-1.243.417,2.251,2.251,0,0,0-.785,1.154,8.227,8.227,0,0,0-.351,2.461v6.515Z"/><path class="j" d="M528.909,1055.4v-17.179h2.11v9.8l4.992-5.063h2.73l-4.758,4.617,5.239,7.828h-2.6l-4.113-6.363-1.488,1.43v4.933Z"/><path class="j" d="M539.861,1051.687l2.086-.329a2.915,2.915,0,0,0,.979,1.922,3.406,3.406,0,0,0,2.244.668,3.293,3.293,0,0,0,2.156-.592,1.767,1.767,0,0,0,.7-1.388,1.28,1.28,0,0,0-.621-1.125,9.122,9.122,0,0,0-2.156-.715,19.734,19.734,0,0,1-3.217-1.014,3.069,3.069,0,0,1-1.822-2.853,3.2,3.2,0,0,1,.381-1.541,3.4,3.4,0,0,1,1.037-1.178,4.347,4.347,0,0,1,1.342-.615,6.373,6.373,0,0,1,1.822-.252,7.186,7.186,0,0,1,2.572.422,3.5,3.5,0,0,1,1.635,1.142,4.464,4.464,0,0,1,.727,1.928l-2.063.281a2.26,2.26,0,0,0-.814-1.5,2.984,2.984,0,0,0-1.9-.539,3.444,3.444,0,0,0-2.074.481,1.4,1.4,0,0,0-.621,1.125,1.164,1.164,0,0,0,.258.738,1.86,1.86,0,0,0,.808.562q.317.119,1.864.539a26.023,26.023,0,0,1,3.123.979,3.169,3.169,0,0,1,1.388,1.107,3.093,3.093,0,0,1,.5,1.8,3.541,3.541,0,0,1-.615,1.986,3.973,3.973,0,0,1-1.775,1.442,6.464,6.464,0,0,1-2.625.51,5.848,5.848,0,0,1-3.7-1.008A4.693,4.693,0,0,1,539.861,1051.687Z"/><path class="j" d="M1553.184,1055.4v-17.179h6.48a15.569,15.569,0,0,1,2.613.164,5.172,5.172,0,0,1,2.121.8,4.206,4.206,0,0,1,1.377,1.659,5.588,5.588,0,0,1-.873,6.052q-1.394,1.518-5.039,1.518h-4.406v6.984Zm2.273-9.011h4.441a4.709,4.709,0,0,0,3.129-.821,2.919,2.919,0,0,0,.926-2.308,3.108,3.108,0,0,0-.545-1.846,2.546,2.546,0,0,0-1.435-1.014,9.759,9.759,0,0,0-2.121-.152h-4.395Z"/><path class="j" d="M1568.707,1055.4v-12.445h1.9v1.887a5.153,5.153,0,0,1,1.342-1.746,2.338,2.338,0,0,1,1.354-.422,4.116,4.116,0,0,1,2.168.679l-.727,1.958a3.014,3.014,0,0,0-1.547-.458,2,2,0,0,0-1.242.417,2.251,2.251,0,0,0-.785,1.154,8.227,8.227,0,0,0-.352,2.461v6.515Z"/><path class="j" d="M1576.542,1040.647v-2.425h2.109v2.425Zm0,14.754v-12.445h2.109V1055.4Z"/><path class="j" d="M1585.127,1055.4l-4.734-12.445h2.226l2.672,7.453q.433,1.207.8,2.508.281-.984.785-2.367l2.766-7.594h2.168L1587.1,1055.4Z"/><path class="j" d="M1601.6,1053.866a7.864,7.864,0,0,1-2.256,1.406,6.507,6.507,0,0,1-2.326.411,4.526,4.526,0,0,1-3.153-1,3.309,3.309,0,0,1-1.1-2.561,3.4,3.4,0,0,1,.416-1.67,3.436,3.436,0,0,1,1.09-1.213,5.135,5.135,0,0,1,1.517-.691,15.2,15.2,0,0,1,1.875-.317,19.309,19.309,0,0,0,3.762-.726c.008-.289.012-.473.012-.551a2.329,2.329,0,0,0-.6-1.816,3.528,3.528,0,0,0-2.4-.715,3.732,3.732,0,0,0-2.2.521,3.194,3.194,0,0,0-1.049,1.846l-2.062-.281a5.1,5.1,0,0,1,.926-2.139,4.056,4.056,0,0,1,1.863-1.254,8.312,8.312,0,0,1,2.824-.439,7.474,7.474,0,0,1,2.59.375,3.415,3.415,0,0,1,1.465.943,3.326,3.326,0,0,1,.656,1.436,11.892,11.892,0,0,1,.106,1.945v2.813a30.082,30.082,0,0,0,.134,3.72,4.681,4.681,0,0,0,.534,1.494h-2.2A4.473,4.473,0,0,1,1601.6,1053.866Zm-.176-4.711a15.466,15.466,0,0,1-3.445.8,7.967,7.967,0,0,0-1.84.422,1.827,1.827,0,0,0-.832.686,1.865,1.865,0,0,0,.345,2.408,2.748,2.748,0,0,0,1.869.562,4.341,4.341,0,0,0,2.168-.533,3.283,3.283,0,0,0,1.395-1.459,5.086,5.086,0,0,0,.34-2.109Z"/><path class="j" d="M1614.755,1050.843l2.074.269a5.381,5.381,0,0,1-1.74,3.358,5.074,5.074,0,0,1-3.44,1.213,5.343,5.343,0,0,1-4.107-1.67,6.777,6.777,0,0,1-1.553-4.787,8.671,8.671,0,0,1,.668-3.528,4.659,4.659,0,0,1,2.033-2.267,6.036,6.036,0,0,1,2.971-.756,5.17,5.17,0,0,1,3.317,1.025,4.7,4.7,0,0,1,1.652,2.912l-2.051.317a3.405,3.405,0,0,0-1.037-1.887,2.684,2.684,0,0,0-1.8-.633,3.275,3.275,0,0,0-2.59,1.143,5.423,5.423,0,0,0-1,3.615,5.612,5.612,0,0,0,.961,3.645,3.13,3.13,0,0,0,2.508,1.136,2.957,2.957,0,0,0,2.074-.761A3.785,3.785,0,0,0,1614.755,1050.843Z"/><path class="j" d="M1618.348,1060.194l-.235-1.98a4.7,4.7,0,0,0,1.207.187,2.318,2.318,0,0,0,1.125-.234,1.914,1.914,0,0,0,.692-.656,10.38,10.38,0,0,0,.644-1.571q.059-.175.188-.515l-4.723-12.469h2.274l2.589,7.207q.5,1.371.9,2.883a28.306,28.306,0,0,1,.867-2.836l2.66-7.254h2.109l-4.734,12.656a24.793,24.793,0,0,1-1.184,2.825,4.159,4.159,0,0,1-1.289,1.529,3.044,3.044,0,0,1-1.734.486A4.221,4.221,0,0,1,1618.348,1060.194Z"/><path class="j" d="M1785.486,1049.882l2.145-.188a4.731,4.731,0,0,0,.709,2.116,3.876,3.876,0,0,0,1.728,1.336,6.566,6.566,0,0,0,2.637.509,6.337,6.337,0,0,0,2.3-.386,3.187,3.187,0,0,0,1.482-1.061,2.454,2.454,0,0,0,.487-1.471,2.24,2.24,0,0,0-.469-1.412,3.473,3.473,0,0,0-1.547-1.013,30.116,30.116,0,0,0-3.059-.838,15.621,15.621,0,0,1-3.316-1.073,4.649,4.649,0,0,1-1.834-1.6,3.925,3.925,0,0,1-.6-2.139,4.369,4.369,0,0,1,.738-2.432,4.572,4.572,0,0,1,2.156-1.716,8.171,8.171,0,0,1,3.152-.586,8.618,8.618,0,0,1,3.37.615,4.868,4.868,0,0,1,2.244,1.81,5.206,5.206,0,0,1,.843,2.708l-2.179.164a3.514,3.514,0,0,0-1.19-2.461,4.625,4.625,0,0,0-2.994-.832,4.812,4.812,0,0,0-3.006.755,2.268,2.268,0,0,0-.943,1.823,1.953,1.953,0,0,0,.668,1.523,9.036,9.036,0,0,0,3.428,1.225,22.733,22.733,0,0,1,3.8,1.1,5.206,5.206,0,0,1,2.215,1.752,4.267,4.267,0,0,1,.715,2.444,4.678,4.678,0,0,1-.785,2.584,5.174,5.174,0,0,1-2.256,1.887,7.86,7.86,0,0,1-3.31.673,9.892,9.892,0,0,1-3.909-.679,5.473,5.473,0,0,1-2.472-2.045A5.8,5.8,0,0,1,1785.486,1049.882Z"/><path class="j" d="M1810.326,1051.394l2.18.269a5.321,5.321,0,0,1-1.91,2.965,6.471,6.471,0,0,1-7.893-.627,6.572,6.572,0,0,1-1.6-4.717,6.876,6.876,0,0,1,1.617-4.875,5.473,5.473,0,0,1,4.195-1.734,5.32,5.32,0,0,1,4.078,1.7,6.751,6.751,0,0,1,1.582,4.781c0,.125,0,.313-.012.563h-9.281a4.781,4.781,0,0,0,1.16,3.14,3.454,3.454,0,0,0,2.6,1.09,3.227,3.227,0,0,0,1.98-.609A4.043,4.043,0,0,0,1810.326,1051.394Zm-6.926-3.411h6.95a4.221,4.221,0,0,0-.8-2.355,3.232,3.232,0,0,0-2.614-1.219,3.349,3.349,0,0,0-2.443.973A3.851,3.851,0,0,0,1803.4,1047.983Z"/><path class="j" d="M1819.568,1053.515l.305,1.863a7.823,7.823,0,0,1-1.594.187,3.611,3.611,0,0,1-1.781-.363,2.032,2.032,0,0,1-.891-.955,7.583,7.583,0,0,1-.257-2.49v-7.16H1813.8v-1.641h1.547v-3.082l2.1-1.266v4.348h2.121v1.641h-2.121v7.277a3.642,3.642,0,0,0,.112,1.16.873.873,0,0,0,.363.41,1.4,1.4,0,0,0,.721.153A6.96,6.96,0,0,0,1819.568,1053.515Z"/><path class="j" d="M1826.043,1053.515l.305,1.863a7.823,7.823,0,0,1-1.594.187,3.609,3.609,0,0,1-1.781-.363,2.032,2.032,0,0,1-.891-.955,7.546,7.546,0,0,1-.258-2.49v-7.16h-1.547v-1.641h1.547v-3.082l2.1-1.266v4.348h2.121v1.641h-2.121v7.277a3.684,3.684,0,0,0,.111,1.16.878.878,0,0,0,.363.41,1.4,1.4,0,0,0,.721.153A6.973,6.973,0,0,0,1826.043,1053.515Z"/><path class="j" d="M1827.926,1040.647v-2.425h2.109v2.425Zm0,14.754v-12.445h2.109V1055.4Z"/><path class="j" d="M1833.055,1055.4v-12.445h1.9v1.77a4.473,4.473,0,0,1,3.961-2.051,5.2,5.2,0,0,1,2.068.4,3.259,3.259,0,0,1,1.413,1.061,4.076,4.076,0,0,1,.656,1.558,12.1,12.1,0,0,1,.117,2.051v7.652h-2.109v-7.57a5.659,5.659,0,0,0-.247-1.928,2.03,2.03,0,0,0-.873-1.019,2.775,2.775,0,0,0-1.47-.381,3.417,3.417,0,0,0-2.326.855q-.979.857-.979,3.246v6.8Z"/><path class="j" d="M1845.823,1056.433l2.051.3a1.953,1.953,0,0,0,.715,1.383,3.507,3.507,0,0,0,2.144.586,3.763,3.763,0,0,0,2.262-.586,2.881,2.881,0,0,0,1.078-1.641,13.465,13.465,0,0,0,.153-2.707,4.34,4.34,0,0,1-3.446,1.629,4.7,4.7,0,0,1-3.972-1.851,7.13,7.13,0,0,1-1.407-4.442,8.263,8.263,0,0,1,.645-3.287,5.161,5.161,0,0,1,1.869-2.326,5.044,5.044,0,0,1,2.877-.82,4.462,4.462,0,0,1,3.633,1.781v-1.5h1.945v10.758a10.2,10.2,0,0,1-.592,4.119,4.322,4.322,0,0,1-1.875,1.916,6.493,6.493,0,0,1-3.158.7,5.959,5.959,0,0,1-3.6-1A3.388,3.388,0,0,1,1845.823,1056.433Zm1.746-7.477a5.4,5.4,0,0,0,.973,3.574,3.209,3.209,0,0,0,4.875.006,5.225,5.225,0,0,0,.984-3.51,5.106,5.106,0,0,0-1.013-3.445,3.137,3.137,0,0,0-2.444-1.16,3.046,3.046,0,0,0-2.39,1.142A5.072,5.072,0,0,0,1847.569,1048.956Z"/><path class="j" d="M1858.521,1051.687l2.086-.329a2.92,2.92,0,0,0,.979,1.922,3.406,3.406,0,0,0,2.244.668,3.292,3.292,0,0,0,2.156-.592,1.767,1.767,0,0,0,.7-1.388,1.28,1.28,0,0,0-.621-1.125,9.1,9.1,0,0,0-2.156-.715,19.734,19.734,0,0,1-3.217-1.014,3.069,3.069,0,0,1-1.822-2.853,3.2,3.2,0,0,1,.381-1.541,3.414,3.414,0,0,1,1.037-1.178,4.347,4.347,0,0,1,1.342-.615,6.378,6.378,0,0,1,1.822-.252,7.182,7.182,0,0,1,2.572.422,3.494,3.494,0,0,1,1.635,1.142,4.464,4.464,0,0,1,.727,1.928l-2.063.281a2.26,2.26,0,0,0-.814-1.5,2.984,2.984,0,0,0-1.9-.539,3.444,3.444,0,0,0-2.074.481,1.4,1.4,0,0,0-.621,1.125,1.164,1.164,0,0,0,.258.738,1.858,1.858,0,0,0,.809.562q.315.119,1.863.539a26.023,26.023,0,0,1,3.123.979,3.171,3.171,0,0,1,1.389,1.107,3.1,3.1,0,0,1,.5,1.8,3.541,3.541,0,0,1-.615,1.986,3.973,3.973,0,0,1-1.775,1.442,6.464,6.464,0,0,1-2.625.51,5.845,5.845,0,0,1-3.7-1.008A4.689,4.689,0,0,1,1858.521,1051.687Z"/><path class="j" d="M1680.037,1055.4v-15.152h-5.66v-2.027h13.617v2.027h-5.683V1055.4Z"/><path class="j" d="M1695.724,1051.394l2.179.269a5.31,5.31,0,0,1-1.91,2.965,6.469,6.469,0,0,1-7.892-.627,6.568,6.568,0,0,1-1.6-4.717,6.876,6.876,0,0,1,1.617-4.875,5.475,5.475,0,0,1,4.2-1.734,5.321,5.321,0,0,1,4.079,1.7,6.755,6.755,0,0,1,1.582,4.781c0,.125,0,.313-.012.563h-9.281a4.781,4.781,0,0,0,1.16,3.14,3.45,3.45,0,0,0,2.6,1.09,3.23,3.23,0,0,0,1.981-.609A4.05,4.05,0,0,0,1695.724,1051.394Zm-6.926-3.411h6.949a4.214,4.214,0,0,0-.8-2.355,3.232,3.232,0,0,0-2.613-1.219,3.348,3.348,0,0,0-2.443.973A3.842,3.842,0,0,0,1688.8,1047.983Z"/><path class="j" d="M1700.336,1055.4v-12.445h1.9v1.887a5.153,5.153,0,0,1,1.342-1.746,2.338,2.338,0,0,1,1.354-.422,4.116,4.116,0,0,1,2.168.679l-.727,1.958a3.017,3.017,0,0,0-1.547-.458,2,2,0,0,0-1.242.417,2.251,2.251,0,0,0-.785,1.154,8.2,8.2,0,0,0-.352,2.461v6.515Z"/><path class="j" d="M1708.16,1055.4v-12.445h1.887v1.746a4.453,4.453,0,0,1,1.558-1.471,4.382,4.382,0,0,1,2.215-.556,4.094,4.094,0,0,1,2.268.574,3.073,3.073,0,0,1,1.248,1.605,4.468,4.468,0,0,1,3.844-2.179,3.79,3.79,0,0,1,2.847,1.025,4.384,4.384,0,0,1,1,3.158v8.543h-2.1v-7.839a5.8,5.8,0,0,0-.2-1.823,1.765,1.765,0,0,0-.744-.9,2.323,2.323,0,0,0-1.266-.34,2.946,2.946,0,0,0-2.18.873,3.846,3.846,0,0,0-.867,2.8v7.23h-2.109v-8.086a3.556,3.556,0,0,0-.516-2.109,1.952,1.952,0,0,0-1.687-.7,3.063,3.063,0,0,0-1.647.469,2.657,2.657,0,0,0-1.1,1.371,7.733,7.733,0,0,0-.339,2.6v6.457Z"/><path class="j" d="M1727.116,1051.687l2.086-.329a2.915,2.915,0,0,0,.979,1.922,3.406,3.406,0,0,0,2.244.668,3.293,3.293,0,0,0,2.156-.592,1.767,1.767,0,0,0,.7-1.388,1.28,1.28,0,0,0-.621-1.125,9.122,9.122,0,0,0-2.156-.715,19.734,19.734,0,0,1-3.217-1.014,3.069,3.069,0,0,1-1.822-2.853,3.2,3.2,0,0,1,.381-1.541,3.4,3.4,0,0,1,1.037-1.178,4.347,4.347,0,0,1,1.342-.615,6.373,6.373,0,0,1,1.822-.252,7.186,7.186,0,0,1,2.572.422,3.5,3.5,0,0,1,1.635,1.142,4.464,4.464,0,0,1,.726,1.928l-2.062.281a2.257,2.257,0,0,0-.815-1.5,2.981,2.981,0,0,0-1.9-.539,3.442,3.442,0,0,0-2.074.481,1.4,1.4,0,0,0-.621,1.125,1.164,1.164,0,0,0,.258.738,1.86,1.86,0,0,0,.808.562q.317.119,1.864.539a26.023,26.023,0,0,1,3.123.979,3.174,3.174,0,0,1,1.388,1.107,3.093,3.093,0,0,1,.5,1.8,3.541,3.541,0,0,1-.615,1.986,3.973,3.973,0,0,1-1.775,1.442,6.464,6.464,0,0,1-2.625.51,5.848,5.848,0,0,1-3.7-1.008A4.693,4.693,0,0,1,1727.116,1051.687Z"/><g class="k"><path d="M41.959,58.368,48.007,42.62h2.245L56.7,58.368H54.323L52.486,53.6H45.9l-1.729,4.769ZM46.5,51.9h5.339L50.2,47.54q-.751-1.987-1.117-3.266a20.023,20.023,0,0,1-.849,3.008Z"/><path d="M59.9,58.368H58.1V42.62h1.934v5.618A3.825,3.825,0,0,1,63.164,46.7a4.8,4.8,0,0,1,1.993.424A4.081,4.081,0,0,1,66.7,48.319a5.764,5.764,0,0,1,.95,1.853A7.649,7.649,0,0,1,68,52.492a6.515,6.515,0,0,1-1.45,4.533,4.534,4.534,0,0,1-3.481,1.6A3.635,3.635,0,0,1,59.9,56.939Zm-.021-5.79a5.912,5.912,0,0,0,.559,2.965,2.764,2.764,0,0,0,4.662.392,5.009,5.009,0,0,0,.923-3.282,5.091,5.091,0,0,0-.886-3.3,2.7,2.7,0,0,0-2.143-1.063,2.779,2.779,0,0,0-2.191,1.1A4.827,4.827,0,0,0,59.877,52.578Z"/><path d="M69.631,52.664a5.877,5.877,0,0,1,1.762-4.694A5.306,5.306,0,0,1,74.98,46.7a5.12,5.12,0,0,1,3.846,1.541,5.868,5.868,0,0,1,1.493,4.26,7.558,7.558,0,0,1-.66,3.465,4.688,4.688,0,0,1-1.923,1.96,5.6,5.6,0,0,1-2.756.7,5.126,5.126,0,0,1-3.872-1.536A6.136,6.136,0,0,1,69.631,52.664Zm1.987,0a4.862,4.862,0,0,0,.956,3.282,3.184,3.184,0,0,0,4.8-.006,4.973,4.973,0,0,0,.956-3.34,4.713,4.713,0,0,0-.961-3.206,3.188,3.188,0,0,0-4.8-.006A4.838,4.838,0,0,0,71.618,52.664Z"/><path d="M90.062,58.368V56.692a4.175,4.175,0,0,1-3.62,1.934,4.611,4.611,0,0,1-1.885-.387,3.108,3.108,0,0,1-1.3-.972,3.635,3.635,0,0,1-.6-1.434,9.806,9.806,0,0,1-.118-1.8V46.96h1.934v6.327a11.25,11.25,0,0,0,.118,2.041,2.014,2.014,0,0,0,.773,1.2,2.4,2.4,0,0,0,1.461.435,3.187,3.187,0,0,0,1.633-.446,2.487,2.487,0,0,0,1.08-1.213,6.131,6.131,0,0,0,.316-2.23V46.96h1.934V58.368Z"/><path d="M99.043,56.639l.279,1.708a7.211,7.211,0,0,1-1.461.172,3.313,3.313,0,0,1-1.632-.333,1.861,1.861,0,0,1-.817-.876,6.913,6.913,0,0,1-.236-2.283V48.464H93.758v-1.5h1.418V44.135l1.923-1.16V46.96h1.944v1.5H97.1v6.671a3.332,3.332,0,0,0,.1,1.063.8.8,0,0,0,.333.376,1.286,1.286,0,0,0,.66.14A6.48,6.48,0,0,0,99.043,56.639Z"/></g><g class="k"><path d="M131.7,53.309l1.966-.172a4.32,4.32,0,0,0,.649,1.938A3.539,3.539,0,0,0,135.9,56.3a5.989,5.989,0,0,0,2.417.468,5.793,5.793,0,0,0,2.105-.355,2.909,2.909,0,0,0,1.359-.973,2.251,2.251,0,0,0,.446-1.347,2.049,2.049,0,0,0-.43-1.3,3.189,3.189,0,0,0-1.418-.929,27.522,27.522,0,0,0-2.8-.768,14.292,14.292,0,0,1-3.04-.983,4.248,4.248,0,0,1-1.681-1.467,3.58,3.58,0,0,1-.554-1.96,4,4,0,0,1,.677-2.229,4.187,4.187,0,0,1,1.977-1.573,7.476,7.476,0,0,1,2.889-.537,7.918,7.918,0,0,1,3.089.563,4.468,4.468,0,0,1,2.057,1.66,4.779,4.779,0,0,1,.773,2.482l-2,.15a3.226,3.226,0,0,0-1.09-2.256,4.244,4.244,0,0,0-2.745-.763,4.4,4.4,0,0,0-2.755.694,2.074,2.074,0,0,0-.865,1.67,1.791,1.791,0,0,0,.612,1.4,8.3,8.3,0,0,0,3.143,1.123,20.823,20.823,0,0,1,3.485,1,4.78,4.78,0,0,1,2.031,1.606,3.919,3.919,0,0,1,.655,2.24,4.285,4.285,0,0,1-.72,2.369,4.748,4.748,0,0,1-2.068,1.729,7.2,7.2,0,0,1-3.034.618,9.067,9.067,0,0,1-3.583-.623,5.011,5.011,0,0,1-2.266-1.874A5.313,5.313,0,0,1,131.7,53.309Z"/><path d="M151.054,56.639l.279,1.708a7.209,7.209,0,0,1-1.46.172,3.314,3.314,0,0,1-1.633-.333,1.866,1.866,0,0,1-.817-.876,6.942,6.942,0,0,1-.236-2.283V48.464h-1.418v-1.5h1.418V44.135l1.923-1.16V46.96h1.944v1.5H149.11v6.671a3.363,3.363,0,0,0,.1,1.063.807.807,0,0,0,.333.376,1.287,1.287,0,0,0,.661.14A6.481,6.481,0,0,0,151.054,56.639Z"/><path d="M152.225,52.664a5.877,5.877,0,0,1,1.762-4.694,5.309,5.309,0,0,1,3.588-1.268,5.119,5.119,0,0,1,3.845,1.541,5.865,5.865,0,0,1,1.494,4.26,7.557,7.557,0,0,1-.661,3.465,4.688,4.688,0,0,1-1.923,1.96,5.594,5.594,0,0,1-2.755.7A5.13,5.13,0,0,1,153.7,57.09,6.136,6.136,0,0,1,152.225,52.664Zm1.987,0a4.862,4.862,0,0,0,.956,3.282,3.184,3.184,0,0,0,4.8-.006,4.973,4.973,0,0,0,.956-3.34,4.713,4.713,0,0,0-.961-3.206,3.188,3.188,0,0,0-4.8-.006A4.838,4.838,0,0,0,154.212,52.664Z"/><path d="M165.159,58.368V46.96h1.74v1.729a4.72,4.72,0,0,1,1.23-1.6,2.145,2.145,0,0,1,1.241-.387,3.775,3.775,0,0,1,1.987.623l-.666,1.794a2.77,2.77,0,0,0-1.418-.419,1.843,1.843,0,0,0-1.139.381,2.063,2.063,0,0,0-.719,1.059,7.522,7.522,0,0,0-.323,2.256v5.972Z"/><path d="M180.316,54.694l2,.247a4.875,4.875,0,0,1-1.751,2.718,5.932,5.932,0,0,1-7.235-.574,6.028,6.028,0,0,1-1.466-4.324,6.306,6.306,0,0,1,1.482-4.469,5.019,5.019,0,0,1,3.846-1.59,4.879,4.879,0,0,1,3.738,1.558,6.187,6.187,0,0,1,1.45,4.383c0,.114,0,.286-.01.515H173.86a4.383,4.383,0,0,0,1.063,2.879,3.166,3.166,0,0,0,2.385,1,2.964,2.964,0,0,0,1.816-.558A3.715,3.715,0,0,0,180.316,54.694Zm-6.349-3.126h6.37a3.864,3.864,0,0,0-.73-2.159,2.964,2.964,0,0,0-2.4-1.117,3.068,3.068,0,0,0-2.239.892A3.526,3.526,0,0,0,173.967,51.568Z"/></g><g class="k"><path d="M1505.842,52.191V50.344l6.671-.011v5.844a11.817,11.817,0,0,1-3.169,1.842,9.4,9.4,0,0,1-3.352.618,8.95,8.95,0,0,1-4.217-.993,6.59,6.59,0,0,1-2.862-2.874,9.056,9.056,0,0,1-.967-4.2,9.757,9.757,0,0,1,.961-4.291,6.4,6.4,0,0,1,2.767-2.96,8.674,8.674,0,0,1,4.157-.966,8.229,8.229,0,0,1,3.088.553,5.116,5.116,0,0,1,2.165,1.541,6.854,6.854,0,0,1,1.192,2.578l-1.88.516a5.83,5.83,0,0,0-.88-1.891,3.631,3.631,0,0,0-1.5-1.1,5.515,5.515,0,0,0-2.17-.413,6.407,6.407,0,0,0-2.471.434,4.62,4.62,0,0,0-1.682,1.145,5.5,5.5,0,0,0-.993,1.557,8.245,8.245,0,0,0-.6,3.169,7.7,7.7,0,0,0,.724,3.524,4.644,4.644,0,0,0,2.112,2.105,6.534,6.534,0,0,0,2.943.688,6.987,6.987,0,0,0,2.643-.522,6.8,6.8,0,0,0,1.955-1.111V52.191Z"/><path d="M1515.338,58.368V46.96h1.729v1.6a4.067,4.067,0,0,1,1.429-1.349,4.014,4.014,0,0,1,2.03-.51,3.751,3.751,0,0,1,2.078.527,2.813,2.813,0,0,1,1.145,1.471,4.094,4.094,0,0,1,3.523-2,3.48,3.48,0,0,1,2.611.94,4.02,4.02,0,0,1,.913,2.895v7.831h-1.923V51.182a5.306,5.306,0,0,0-.188-1.671,1.621,1.621,0,0,0-.682-.822,2.13,2.13,0,0,0-1.16-.311,2.7,2.7,0,0,0-2,.8,3.516,3.516,0,0,0-.8,2.561v6.628h-1.934V50.956a3.272,3.272,0,0,0-.472-1.934,1.794,1.794,0,0,0-1.547-.644,2.806,2.806,0,0,0-1.51.43,2.431,2.431,0,0,0-1,1.256,7.07,7.07,0,0,0-.312,2.385v5.919Z"/><path d="M1541.108,56.961a7.228,7.228,0,0,1-2.068,1.289,5.965,5.965,0,0,1-2.132.376,4.149,4.149,0,0,1-2.889-.918,3.032,3.032,0,0,1-1.01-2.348,3.176,3.176,0,0,1,1.38-2.642,4.709,4.709,0,0,1,1.391-.634,13.624,13.624,0,0,1,1.719-.29,17.726,17.726,0,0,0,3.448-.666c.007-.265.011-.434.011-.505a2.135,2.135,0,0,0-.548-1.665,3.234,3.234,0,0,0-2.2-.655,3.424,3.424,0,0,0-2.015.477,2.924,2.924,0,0,0-.961,1.693l-1.89-.258a4.674,4.674,0,0,1,.848-1.96A3.73,3.73,0,0,1,1535.9,47.1a7.66,7.66,0,0,1,2.589-.4,6.833,6.833,0,0,1,2.374.344,3.123,3.123,0,0,1,1.343.865,3.056,3.056,0,0,1,.6,1.316,10.951,10.951,0,0,1,.1,1.783v2.578a27.493,27.493,0,0,0,.123,3.411,4.276,4.276,0,0,0,.49,1.369h-2.02A4.082,4.082,0,0,1,1541.108,56.961Zm-.161-4.318a14.2,14.2,0,0,1-3.158.73,7.218,7.218,0,0,0-1.686.387,1.67,1.67,0,0,0-.763.628,1.709,1.709,0,0,0,.316,2.208,2.526,2.526,0,0,0,1.714.515,3.987,3.987,0,0,0,1.987-.489,3,3,0,0,0,1.279-1.337,4.678,4.678,0,0,0,.311-1.933Z"/><path d="M1545.91,44.844V42.62h1.934v2.224Zm0,13.524V46.96h1.934V58.368Z"/><path d="M1550.744,58.368V42.62h1.934V58.368Z"/></g><g class="k"><path d="M1581.479,58.368V42.62h2.084V58.368Z"/><path d="M1586.99,58.368V46.96h1.73v1.6a4.073,4.073,0,0,1,1.428-1.349,4.018,4.018,0,0,1,2.031-.51,3.757,3.757,0,0,1,2.079.527A2.809,2.809,0,0,1,1595.4,48.7a4.1,4.1,0,0,1,3.524-2,3.474,3.474,0,0,1,2.61.94,4.015,4.015,0,0,1,.913,2.895v7.831h-1.923V51.182a5.313,5.313,0,0,0-.187-1.671,1.628,1.628,0,0,0-.683-.822,2.125,2.125,0,0,0-1.16-.311,2.7,2.7,0,0,0-2,.8,3.52,3.52,0,0,0-.8,2.561v6.628h-1.933V50.956a3.265,3.265,0,0,0-.473-1.934,1.793,1.793,0,0,0-1.547-.644,2.8,2.8,0,0,0-1.509.43,2.432,2.432,0,0,0-1.005,1.256,7.074,7.074,0,0,0-.311,2.385v5.919Z"/><path d="M1612.761,56.961a7.228,7.228,0,0,1-2.068,1.289,5.972,5.972,0,0,1-2.132.376,4.153,4.153,0,0,1-2.89-.918,3.036,3.036,0,0,1-1.01-2.348,3.119,3.119,0,0,1,.382-1.531,3.153,3.153,0,0,1,1-1.111,4.7,4.7,0,0,1,1.392-.634,13.634,13.634,0,0,1,1.718-.29,17.74,17.74,0,0,0,3.449-.666c.006-.265.01-.434.01-.505a2.131,2.131,0,0,0-.548-1.665,3.234,3.234,0,0,0-2.2-.655,3.42,3.42,0,0,0-2.014.477,2.918,2.918,0,0,0-.961,1.693l-1.891-.258a4.674,4.674,0,0,1,.849-1.96,3.725,3.725,0,0,1,1.708-1.151,7.651,7.651,0,0,1,2.589-.4,6.84,6.84,0,0,1,2.374.344,3.119,3.119,0,0,1,1.342.865,3.022,3.022,0,0,1,.6,1.316,10.917,10.917,0,0,1,.1,1.783v2.578a27.493,27.493,0,0,0,.123,3.411,4.3,4.3,0,0,0,.489,1.369h-2.02A4.1,4.1,0,0,1,1612.761,56.961Zm-.161-4.318a14.208,14.208,0,0,1-3.159.73,7.218,7.218,0,0,0-1.686.387,1.68,1.68,0,0,0-.763.628,1.711,1.711,0,0,0,.317,2.208,2.523,2.523,0,0,0,1.713.515,3.985,3.985,0,0,0,1.988-.489,3,3,0,0,0,1.278-1.337,4.659,4.659,0,0,0,.312-1.933Z"/><path d="M1617.2,59.313l1.88.28a1.789,1.789,0,0,0,.655,1.267,3.213,3.213,0,0,0,1.966.537,3.443,3.443,0,0,0,2.073-.537,2.643,2.643,0,0,0,.989-1.5,12.465,12.465,0,0,0,.139-2.481,3.976,3.976,0,0,1-3.158,1.493,4.3,4.3,0,0,1-3.641-1.7,6.532,6.532,0,0,1-1.289-4.071,7.589,7.589,0,0,1,.59-3.013,4.721,4.721,0,0,1,1.714-2.133,4.627,4.627,0,0,1,2.637-.752,4.089,4.089,0,0,1,3.33,1.633V46.96h1.783v9.861a9.342,9.342,0,0,1-.543,3.776,3.957,3.957,0,0,1-1.718,1.757,5.966,5.966,0,0,1-2.895.644,5.455,5.455,0,0,1-3.3-.919A3.1,3.1,0,0,1,1617.2,59.313Zm1.6-6.853a4.949,4.949,0,0,0,.891,3.276,2.94,2.94,0,0,0,4.469.005,4.783,4.783,0,0,0,.9-3.217,4.681,4.681,0,0,0-.93-3.158,2.87,2.87,0,0,0-2.239-1.063,2.787,2.787,0,0,0-2.192,1.048A4.65,4.65,0,0,0,1618.8,52.46Z"/><path d="M1637.6,54.694l2,.247a4.886,4.886,0,0,1-1.751,2.718,5.932,5.932,0,0,1-7.235-.574,6.024,6.024,0,0,1-1.466-4.324,6.306,6.306,0,0,1,1.482-4.469,5.017,5.017,0,0,1,3.846-1.59,4.879,4.879,0,0,1,3.738,1.558,6.187,6.187,0,0,1,1.45,4.383c0,.114,0,.286-.011.515h-8.507a4.378,4.378,0,0,0,1.063,2.879,3.168,3.168,0,0,0,2.385,1,2.961,2.961,0,0,0,1.815-.558A3.716,3.716,0,0,0,1637.6,54.694Zm-6.349-3.126h6.37a3.864,3.864,0,0,0-.73-2.159,2.965,2.965,0,0,0-2.4-1.117,3.07,3.07,0,0,0-2.24.892A3.521,3.521,0,0,0,1631.248,51.568Z"/><path d="M1641.249,54.963l1.912-.3a2.668,2.668,0,0,0,.9,1.762,3.123,3.123,0,0,0,2.056.612,3.022,3.022,0,0,0,1.977-.543,1.621,1.621,0,0,0,.644-1.272,1.175,1.175,0,0,0-.569-1.032,8.437,8.437,0,0,0-1.977-.655,17.9,17.9,0,0,1-2.948-.93A2.844,2.844,0,0,1,1642,51.521a2.88,2.88,0,0,1-.425-1.532,2.942,2.942,0,0,1,.349-1.412,3.124,3.124,0,0,1,.951-1.08,3.987,3.987,0,0,1,1.231-.564,5.834,5.834,0,0,1,1.669-.231,6.6,6.6,0,0,1,2.358.387,3.2,3.2,0,0,1,1.5,1.047,4.1,4.1,0,0,1,.666,1.767l-1.891.258a2.067,2.067,0,0,0-.747-1.375,2.732,2.732,0,0,0-1.745-.494,3.156,3.156,0,0,0-1.9.44,1.283,1.283,0,0,0-.57,1.032,1.067,1.067,0,0,0,.237.676,1.7,1.7,0,0,0,.741.516q.29.106,1.708.494a23.669,23.669,0,0,1,2.862.9,2.913,2.913,0,0,1,1.274,1.015,2.842,2.842,0,0,1,.462,1.655,3.25,3.25,0,0,1-.564,1.82,3.652,3.652,0,0,1-1.628,1.322,5.932,5.932,0,0,1-2.406.467,5.365,5.365,0,0,1-3.39-.924A4.3,4.3,0,0,1,1641.249,54.963Z"/></g><rect class="l" x="1688.9" y="38.9" width="6.8" height="6.8"/><rect class="l" x="1699.1" y="38.9" width="6.8" height="6.8"/><rect class="l" x="1709.3" y="38.9" width="6.8" height="6.8"/><rect class="l" x="1688.9" y="49.1" width="6.8" height="6.8"/><rect class="l" x="1699.1" y="49.1" width="6.8" height="6.8"/><rect class="l" x="1709.3" y="49.1" width="6.8" height="6.8"/><rect class="l" x="1688.9" y="59.3" width="6.8" height="6.8"/><rect class="l" x="1699.1" y="59.3" width="6.8" height="6.8"/><rect class="l" x="1709.3" y="59.3" width="6.8" height="6.8"/><rect class="m" x="1753.5" y="28" width="115" height="49" rx="3"/><path class="a" d="M1775.133,53.672l3.094-.3a3.77,3.77,0,0,0,1.132,2.288,3.43,3.43,0,0,0,2.305.731,3.539,3.539,0,0,0,2.315-.651,1.931,1.931,0,0,0,.779-1.519,1.437,1.437,0,0,0-.328-.951,2.622,2.622,0,0,0-1.145-.682q-.558-.194-2.545-.688a8.629,8.629,0,0,1-3.588-1.557,4.1,4.1,0,0,1-1.451-3.169,4.043,4.043,0,0,1,.683-2.25,4.262,4.262,0,0,1,1.966-1.6,7.877,7.877,0,0,1,3.1-.548,6.649,6.649,0,0,1,4.463,1.3,4.588,4.588,0,0,1,1.574,3.47l-3.179.139a2.713,2.713,0,0,0-.876-1.746,3.219,3.219,0,0,0-2.015-.531,3.64,3.64,0,0,0-2.17.569,1.15,1.15,0,0,0-.5.978,1.2,1.2,0,0,0,.473.956,8.335,8.335,0,0,0,2.922,1.053,15.345,15.345,0,0,1,3.431,1.134,4.413,4.413,0,0,1,1.741,1.6,4.956,4.956,0,0,1-.123,5.044,4.518,4.518,0,0,1-2.127,1.757,8.934,8.934,0,0,1-3.428.574,6.815,6.815,0,0,1-4.586-1.381A5.994,5.994,0,0,1,1775.133,53.672Z"/><path class="a" d="M1790.59,45.841V43.048h3.019v2.793Zm0,12.955V47.388h3.019V58.8Z"/><path class="a" d="M1796.424,59.548l3.447.419a1.175,1.175,0,0,0,.4.827,2.261,2.261,0,0,0,1.353.322,3.519,3.519,0,0,0,1.772-.354A1.462,1.462,0,0,0,1804,60a4.546,4.546,0,0,0,.141-1.386V56.948a4.085,4.085,0,0,1-3.416,1.848,4.211,4.211,0,0,1-3.643-1.944,6.619,6.619,0,0,1-1.053-3.825,6.288,6.288,0,0,1,1.381-4.382,4.455,4.455,0,0,1,3.432-1.515,4.181,4.181,0,0,1,3.492,1.858v-1.6h2.824V57.625a10.241,10.241,0,0,1-.332,3.019,3.742,3.742,0,0,1-.935,1.568,4.128,4.128,0,0,1-1.606.892,8.483,8.483,0,0,1-2.541.322,6.575,6.575,0,0,1-4.113-.993,3.116,3.116,0,0,1-1.215-2.52C1796.412,59.812,1796.416,59.691,1796.424,59.548Zm2.695-6.693a4.121,4.121,0,0,0,.7,2.66,2.179,2.179,0,0,0,1.736.842,2.4,2.4,0,0,0,1.869-.864,3.773,3.773,0,0,0,.761-2.562,4,4,0,0,0-.73-2.632,2.32,2.32,0,0,0-1.848-.86,2.232,2.232,0,0,0-1.788.843A3.957,3.957,0,0,0,1799.119,52.855Z"/><path class="a" d="M1820.518,58.8H1817.5V52.974a9.009,9.009,0,0,0-.193-2.391,1.678,1.678,0,0,0-.629-.843,1.8,1.8,0,0,0-1.047-.3,2.425,2.425,0,0,0-1.408.43,2.165,2.165,0,0,0-.854,1.139,9.847,9.847,0,0,0-.23,2.621V58.8h-3.02V47.388h2.805v1.675a4.679,4.679,0,0,1,5.586-1.574,3.067,3.067,0,0,1,1.251.919,3.352,3.352,0,0,1,.591,1.268,9.427,9.427,0,0,1,.166,2.03Z"/><path class="a" d="M1829.691,45.841V43.048h3.02v2.793Zm0,12.955V47.388h3.02V58.8Z"/><path class="a" d="M1846.182,58.8h-3.02V52.974a9.009,9.009,0,0,0-.193-2.391,1.676,1.676,0,0,0-.628-.843,1.8,1.8,0,0,0-1.048-.3,2.419,2.419,0,0,0-1.406.43,2.161,2.161,0,0,0-.855,1.139,9.835,9.835,0,0,0-.231,2.621V58.8h-3.018V47.388h2.8v1.675a4.679,4.679,0,0,1,5.586-1.574,3.064,3.064,0,0,1,1.252.919,3.337,3.337,0,0,1,.591,1.268,9.48,9.48,0,0,1,.167,2.03Z"/><rect class="n" x="711.75" y="663.5" width="214.5" height="59" rx="6"/><rect class="o" x="946.25" y="663.5" width="239.5" height="59" rx="6"/><g class="k"><path class="j" d="M750.088,694.663v-2.016l7.277-.011v6.375a12.878,12.878,0,0,1-3.457,2.01,10.254,10.254,0,0,1-3.656.673,9.752,9.752,0,0,1-4.6-1.084,7.16,7.16,0,0,1-3.123-3.134,9.875,9.875,0,0,1-1.054-4.582,10.635,10.635,0,0,1,1.048-4.682,6.989,6.989,0,0,1,3.018-3.229,9.458,9.458,0,0,1,4.535-1.054,8.993,8.993,0,0,1,3.369.6,5.6,5.6,0,0,1,2.362,1.682,7.451,7.451,0,0,1,1.3,2.812l-2.05.563a6.35,6.35,0,0,0-.961-2.063,3.946,3.946,0,0,0-1.641-1.2,6.013,6.013,0,0,0-2.367-.451,6.955,6.955,0,0,0-2.695.475,5.012,5.012,0,0,0-1.834,1.248,5.924,5.924,0,0,0-1.084,1.7,8.981,8.981,0,0,0-.657,3.457,8.4,8.4,0,0,0,.791,3.844,5.067,5.067,0,0,0,2.3,2.3,7.13,7.13,0,0,0,3.211.75,7.631,7.631,0,0,0,2.883-.569,7.452,7.452,0,0,0,2.133-1.213v-3.2Z"/><path class="j" d="M759.47,695.179a6.414,6.414,0,0,1,1.922-5.121,5.79,5.79,0,0,1,3.914-1.383,5.581,5.581,0,0,1,4.195,1.681A6.4,6.4,0,0,1,771.13,695a8.24,8.24,0,0,1-.72,3.779,5.107,5.107,0,0,1-2.1,2.139,6.106,6.106,0,0,1-3.006.762,5.594,5.594,0,0,1-4.224-1.676A6.691,6.691,0,0,1,759.47,695.179Zm2.168,0a5.3,5.3,0,0,0,1.043,3.58,3.473,3.473,0,0,0,5.238-.006,5.424,5.424,0,0,0,1.043-3.645,5.143,5.143,0,0,0-1.048-3.5,3.479,3.479,0,0,0-5.233-.006A5.282,5.282,0,0,0,761.638,695.179Z"/><path class="j" d="M772.626,695.179a6.414,6.414,0,0,1,1.922-5.121,5.79,5.79,0,0,1,3.914-1.383,5.583,5.583,0,0,1,4.2,1.681A6.4,6.4,0,0,1,784.286,695a8.226,8.226,0,0,1-.721,3.779,5.1,5.1,0,0,1-2.1,2.139,6.106,6.106,0,0,1-3.006.762,5.6,5.6,0,0,1-4.225-1.676A6.7,6.7,0,0,1,772.626,695.179Zm2.168,0a5.3,5.3,0,0,0,1.043,3.58,3.473,3.473,0,0,0,5.238-.006,5.424,5.424,0,0,0,1.043-3.645,5.138,5.138,0,0,0-1.049-3.5,3.478,3.478,0,0,0-5.232-.006A5.282,5.282,0,0,0,774.794,695.179Z"/><path class="j" d="M786.18,702.433l2.05.3a1.957,1.957,0,0,0,.715,1.383,3.512,3.512,0,0,0,2.145.586,3.767,3.767,0,0,0,2.262-.586,2.886,2.886,0,0,0,1.078-1.641,13.492,13.492,0,0,0,.152-2.707,4.338,4.338,0,0,1-3.445,1.629,4.7,4.7,0,0,1-3.973-1.851,7.135,7.135,0,0,1-1.406-4.442,8.28,8.28,0,0,1,.644-3.287,5.161,5.161,0,0,1,1.869-2.326,5.049,5.049,0,0,1,2.877-.82,4.462,4.462,0,0,1,3.633,1.781v-1.5h1.946v10.758a10.214,10.214,0,0,1-.592,4.119,4.332,4.332,0,0,1-1.875,1.916,6.5,6.5,0,0,1-3.158.7,5.955,5.955,0,0,1-3.6-1A3.386,3.386,0,0,1,786.18,702.433Zm1.746-7.477a5.4,5.4,0,0,0,.972,3.574,3.209,3.209,0,0,0,4.875.006,5.219,5.219,0,0,0,.985-3.51,5.1,5.1,0,0,0-1.014-3.445,3.136,3.136,0,0,0-2.443-1.16,3.046,3.046,0,0,0-2.391,1.142A5.077,5.077,0,0,0,787.926,694.956Z"/><path class="j" d="M799.675,701.4V684.222h2.11V701.4Z"/><path class="j" d="M813.382,697.394l2.18.269a5.317,5.317,0,0,1-1.911,2.965,6.469,6.469,0,0,1-7.892-.627,6.568,6.568,0,0,1-1.6-4.717,6.876,6.876,0,0,1,1.617-4.875,5.476,5.476,0,0,1,4.2-1.734,5.32,5.32,0,0,1,4.078,1.7,6.755,6.755,0,0,1,1.582,4.781c0,.125,0,.313-.012.563h-9.281a4.781,4.781,0,0,0,1.16,3.14,3.452,3.452,0,0,0,2.6,1.09,3.229,3.229,0,0,0,1.98-.609A4.043,4.043,0,0,0,813.382,697.394Zm-6.926-3.411h6.949a4.206,4.206,0,0,0-.8-2.355A3.23,3.23,0,0,0,810,690.409a3.348,3.348,0,0,0-2.443.973A3.847,3.847,0,0,0,806.456,693.983Z"/><path class="j" d="M823.99,695.882l2.144-.188a4.744,4.744,0,0,0,.709,2.116,3.879,3.879,0,0,0,1.729,1.336,6.558,6.558,0,0,0,2.636.509,6.333,6.333,0,0,0,2.3-.386,3.191,3.191,0,0,0,1.483-1.061,2.46,2.46,0,0,0,.486-1.471,2.234,2.234,0,0,0-.469-1.412,3.467,3.467,0,0,0-1.547-1.013,30.069,30.069,0,0,0-3.058-.838,15.635,15.635,0,0,1-3.317-1.073,4.646,4.646,0,0,1-1.833-1.6,3.917,3.917,0,0,1-.6-2.139,4.369,4.369,0,0,1,.738-2.432,4.57,4.57,0,0,1,2.157-1.716,8.171,8.171,0,0,1,3.152-.586,8.617,8.617,0,0,1,3.369.615,4.858,4.858,0,0,1,2.244,1.81,5.2,5.2,0,0,1,.844,2.708l-2.18.164a3.514,3.514,0,0,0-1.189-2.461,4.629,4.629,0,0,0-2.994-.832,4.812,4.812,0,0,0-3.006.755,2.269,2.269,0,0,0-.944,1.823,1.953,1.953,0,0,0,.668,1.523,9.043,9.043,0,0,0,3.428,1.225,22.753,22.753,0,0,1,3.8,1.1,5.212,5.212,0,0,1,2.215,1.752,4.274,4.274,0,0,1,.715,2.444,4.671,4.671,0,0,1-.786,2.584,5.177,5.177,0,0,1-2.255,1.887,7.865,7.865,0,0,1-3.311.673,9.886,9.886,0,0,1-3.908-.679,5.475,5.475,0,0,1-2.473-2.045A5.794,5.794,0,0,1,823.99,695.882Z"/><path class="j" d="M848.829,697.394l2.18.269a5.321,5.321,0,0,1-1.91,2.965,6.471,6.471,0,0,1-7.893-.627,6.572,6.572,0,0,1-1.6-4.717,6.877,6.877,0,0,1,1.618-4.875,5.473,5.473,0,0,1,4.195-1.734,5.32,5.32,0,0,1,4.078,1.7,6.751,6.751,0,0,1,1.582,4.781c0,.125,0,.313-.012.563h-9.281a4.781,4.781,0,0,0,1.16,3.14,3.454,3.454,0,0,0,2.6,1.09,3.229,3.229,0,0,0,1.98-.609A4.043,4.043,0,0,0,848.829,697.394Zm-6.926-3.411h6.95a4.221,4.221,0,0,0-.8-2.355,3.232,3.232,0,0,0-2.614-1.219,3.349,3.349,0,0,0-2.443.973A3.851,3.851,0,0,0,841.9,693.983Z"/><path class="j" d="M861.586,699.866a7.847,7.847,0,0,1-2.255,1.406,6.509,6.509,0,0,1-2.327.411,4.523,4.523,0,0,1-3.152-1,3.31,3.31,0,0,1-1.1-2.561,3.4,3.4,0,0,1,.417-1.67,3.443,3.443,0,0,1,1.089-1.213,5.141,5.141,0,0,1,1.518-.691,15.2,15.2,0,0,1,1.875-.317,19.309,19.309,0,0,0,3.762-.726c.007-.289.011-.473.011-.551a2.329,2.329,0,0,0-.6-1.816,3.529,3.529,0,0,0-2.4-.715,3.731,3.731,0,0,0-2.2.521,3.188,3.188,0,0,0-1.049,1.846l-2.062-.281a5.1,5.1,0,0,1,.926-2.139,4.051,4.051,0,0,1,1.863-1.254,8.308,8.308,0,0,1,2.824-.439,7.474,7.474,0,0,1,2.59.375,3.415,3.415,0,0,1,1.465.943,3.326,3.326,0,0,1,.656,1.436,11.926,11.926,0,0,1,.105,1.945v2.813a29.791,29.791,0,0,0,.135,3.72,4.7,4.7,0,0,0,.533,1.494h-2.2A4.5,4.5,0,0,1,861.586,699.866Zm-.175-4.711a15.463,15.463,0,0,1-3.446.8,7.994,7.994,0,0,0-1.84.422,1.838,1.838,0,0,0-.832.686,1.864,1.864,0,0,0,.346,2.408,2.748,2.748,0,0,0,1.869.562,4.344,4.344,0,0,0,2.168-.533,3.283,3.283,0,0,0,1.395-1.459,5.1,5.1,0,0,0,.34-2.109Z"/><path class="j" d="M866.6,701.4V688.956h1.9v1.887a5.141,5.141,0,0,1,1.342-1.746,2.335,2.335,0,0,1,1.353-.422,4.113,4.113,0,0,1,2.168.679l-.726,1.958a3.017,3.017,0,0,0-1.547-.458,2,2,0,0,0-1.242.417,2.251,2.251,0,0,0-.785,1.154,8.2,8.2,0,0,0-.352,2.461V701.4Z"/><path class="j" d="M882.542,696.843l2.075.269a5.382,5.382,0,0,1-1.741,3.358,5.071,5.071,0,0,1-3.439,1.213,5.343,5.343,0,0,1-4.107-1.67,6.773,6.773,0,0,1-1.553-4.787,8.671,8.671,0,0,1,.668-3.528,4.654,4.654,0,0,1,2.033-2.267,6.03,6.03,0,0,1,2.971-.756,5.167,5.167,0,0,1,3.316,1.025,4.7,4.7,0,0,1,1.652,2.912l-2.05.317a3.411,3.411,0,0,0-1.037-1.887,2.685,2.685,0,0,0-1.8-.633,3.273,3.273,0,0,0-2.59,1.143,5.423,5.423,0,0,0-1,3.615,5.606,5.606,0,0,0,.961,3.645,3.127,3.127,0,0,0,2.508,1.136,2.959,2.959,0,0,0,2.074-.761A3.784,3.784,0,0,0,882.542,696.843Z"/><path class="j" d="M886.229,701.4V684.222h2.109v6.164a4.713,4.713,0,0,1,3.727-1.711,5.013,5.013,0,0,1,2.4.545,3.2,3.2,0,0,1,1.459,1.506,6.937,6.937,0,0,1,.44,2.789V701.4h-2.11v-7.886a3.258,3.258,0,0,0-.685-2.3,2.548,2.548,0,0,0-1.94-.721,3.409,3.409,0,0,0-1.763.487,2.741,2.741,0,0,0-1.178,1.318,6.062,6.062,0,0,0-.352,2.3V701.4Z"/></g><g class="k"><path class="j" d="M976.5,701.4V684.222h2.273V701.4Z"/><path class="j" d="M982.192,686.5v-2.449h2.262v1.933a5.174,5.174,0,0,1-.363,2.262,3.2,3.2,0,0,1-1.57,1.43l-.516-.832a1.828,1.828,0,0,0,.943-.815,3.407,3.407,0,0,0,.346-1.529Z"/><path class="j" d="M987.461,701.4V688.956h1.887V690.7a4.445,4.445,0,0,1,1.558-1.471,4.382,4.382,0,0,1,2.215-.556,4.094,4.094,0,0,1,2.268.574,3.073,3.073,0,0,1,1.248,1.605,4.466,4.466,0,0,1,3.843-2.179,3.79,3.79,0,0,1,2.848,1.025,4.384,4.384,0,0,1,1,3.158V701.4h-2.1v-7.839a5.762,5.762,0,0,0-.206-1.823,1.755,1.755,0,0,0-.744-.9,2.317,2.317,0,0,0-1.265-.34,2.946,2.946,0,0,0-2.18.873,3.846,3.846,0,0,0-.867,2.8v7.23h-2.11v-8.086a3.556,3.556,0,0,0-.515-2.109,1.952,1.952,0,0,0-1.688-.7,3.062,3.062,0,0,0-1.646.469,2.657,2.657,0,0,0-1.1,1.371,7.729,7.729,0,0,0-.34,2.6V701.4Z"/><path class="j" d="M1014.124,701.4V684.222h11.59v2.027H1016.4v5.32h8.063V693.6H1016.4v7.8Z"/><path class="j" d="M1036.725,697.394l2.179.269a5.31,5.31,0,0,1-1.91,2.965A6.469,6.469,0,0,1,1029.1,700a6.568,6.568,0,0,1-1.6-4.717,6.876,6.876,0,0,1,1.617-4.875,5.475,5.475,0,0,1,4.2-1.734,5.321,5.321,0,0,1,4.079,1.7,6.755,6.755,0,0,1,1.582,4.781c0,.125,0,.313-.012.563h-9.281a4.776,4.776,0,0,0,1.16,3.14,3.45,3.45,0,0,0,2.6,1.09,3.23,3.23,0,0,0,1.981-.609A4.05,4.05,0,0,0,1036.725,697.394Zm-6.926-3.411h6.949a4.214,4.214,0,0,0-.8-2.355,3.232,3.232,0,0,0-2.613-1.219,3.348,3.348,0,0,0-2.443.973A3.842,3.842,0,0,0,1029.8,693.983Z"/><path class="j" d="M1049.881,697.394l2.18.269a5.317,5.317,0,0,1-1.911,2.965,6.469,6.469,0,0,1-7.892-.627,6.568,6.568,0,0,1-1.6-4.717,6.876,6.876,0,0,1,1.617-4.875,5.477,5.477,0,0,1,4.2-1.734,5.32,5.32,0,0,1,4.078,1.7,6.751,6.751,0,0,1,1.582,4.781c0,.125,0,.313-.012.563h-9.281a4.781,4.781,0,0,0,1.16,3.14,3.452,3.452,0,0,0,2.6,1.09,3.229,3.229,0,0,0,1.98-.609A4.043,4.043,0,0,0,1049.881,697.394Zm-6.926-3.411h6.949a4.206,4.206,0,0,0-.8-2.355,3.23,3.23,0,0,0-2.613-1.219,3.348,3.348,0,0,0-2.443.973A3.847,3.847,0,0,0,1042.955,693.983Z"/><path class="j" d="M1054.47,701.4V684.222h2.109V701.4Z"/><path class="j" d="M1059.668,686.647v-2.425h2.109v2.425Zm0,14.754V688.956h2.109V701.4Z"/><path class="j" d="M1064.8,701.4V688.956h1.9v1.77a4.473,4.473,0,0,1,3.961-2.051,5.209,5.209,0,0,1,2.069.4,3.256,3.256,0,0,1,1.412,1.061,4.076,4.076,0,0,1,.656,1.558,12.1,12.1,0,0,1,.117,2.051V701.4H1072.8v-7.57a5.689,5.689,0,0,0-.246-1.928,2.03,2.03,0,0,0-.873-1.019,2.779,2.779,0,0,0-1.471-.381,3.417,3.417,0,0,0-2.326.855q-.98.857-.979,3.246v6.8Z"/><path class="j" d="M1077.565,702.433l2.051.3a1.953,1.953,0,0,0,.715,1.383,3.508,3.508,0,0,0,2.145.586,3.762,3.762,0,0,0,2.261-.586,2.877,2.877,0,0,0,1.078-1.641,13.387,13.387,0,0,0,.153-2.707,4.34,4.34,0,0,1-3.446,1.629,4.7,4.7,0,0,1-3.972-1.851,7.129,7.129,0,0,1-1.406-4.442,8.262,8.262,0,0,1,.644-3.287,5.161,5.161,0,0,1,1.869-2.326,5.049,5.049,0,0,1,2.877-.82,4.462,4.462,0,0,1,3.633,1.781v-1.5h1.945v10.758a10.218,10.218,0,0,1-.591,4.119,4.332,4.332,0,0,1-1.875,1.916,6.5,6.5,0,0,1-3.159.7,5.954,5.954,0,0,1-3.6-1A3.389,3.389,0,0,1,1077.565,702.433Zm1.747-7.477a5.4,5.4,0,0,0,.972,3.574,3.209,3.209,0,0,0,4.875.006,5.225,5.225,0,0,0,.985-3.51,5.1,5.1,0,0,0-1.014-3.445,3.136,3.136,0,0,0-2.443-1.16,3.046,3.046,0,0,0-2.391,1.142A5.077,5.077,0,0,0,1079.312,694.956Z"/><path class="j" d="M1097.76,701.4V684.222h2.273v15.152h8.461V701.4Z"/><path class="j" d="M1118.9,701.4v-1.828a4.558,4.558,0,0,1-3.95,2.11,5.033,5.033,0,0,1-2.056-.422,3.387,3.387,0,0,1-1.418-1.061,3.97,3.97,0,0,1-.651-1.564,10.709,10.709,0,0,1-.129-1.969v-7.711h2.11v6.9a12.3,12.3,0,0,0,.129,2.227,2.2,2.2,0,0,0,.843,1.307,2.618,2.618,0,0,0,1.594.474,3.47,3.47,0,0,0,1.781-.486,2.7,2.7,0,0,0,1.178-1.324,6.634,6.634,0,0,0,.346-2.432v-6.668h2.109V701.4Z"/><path class="j" d="M1132.017,696.843l2.074.269a5.386,5.386,0,0,1-1.74,3.358,5.074,5.074,0,0,1-3.44,1.213,5.343,5.343,0,0,1-4.107-1.67,6.777,6.777,0,0,1-1.553-4.787,8.671,8.671,0,0,1,.668-3.528,4.654,4.654,0,0,1,2.033-2.267,6.033,6.033,0,0,1,2.971-.756,5.167,5.167,0,0,1,3.316,1.025,4.7,4.7,0,0,1,1.653,2.912l-2.051.317a3.405,3.405,0,0,0-1.037-1.887,2.684,2.684,0,0,0-1.8-.633,3.273,3.273,0,0,0-2.59,1.143,5.423,5.423,0,0,0-1,3.615,5.606,5.606,0,0,0,.961,3.645,3.129,3.129,0,0,0,2.508,1.136,2.959,2.959,0,0,0,2.074-.761A3.785,3.785,0,0,0,1132.017,696.843Z"/><path class="j" d="M1135.715,701.4V684.222h2.109v9.8l4.992-5.063h2.731l-4.758,4.617,5.238,7.828h-2.6l-4.114-6.363-1.488,1.43V701.4Z"/><path class="j" d="M1147.418,706.194l-.234-1.98a4.7,4.7,0,0,0,1.207.187,2.323,2.323,0,0,0,1.125-.234,1.919,1.919,0,0,0,.691-.656,10.343,10.343,0,0,0,.645-1.571q.058-.176.187-.515l-4.723-12.469h2.274l2.59,7.207q.5,1.371.9,2.883a28.306,28.306,0,0,1,.867-2.836l2.66-7.254h2.11l-4.735,12.656a24.841,24.841,0,0,1-1.183,2.825,4.169,4.169,0,0,1-1.289,1.529,3.049,3.049,0,0,1-1.735.486A4.221,4.221,0,0,1,1147.418,706.194Z"/></g></svg>